<svg xmlns="http://www.w3.org/2000/svg" viewBox="0 0 223.52 227.23"><defs><style>.cls-1{fill:#51ffb8;}.cls-2{fill:#fffeff;}.cls-3{fill:#f49f42;}.cls-4{fill:#51ffbd;}.cls-5{fill:#00c7b1;}</style></defs><g id="Layer_2" data-name="Layer 2"><g id="Layer_1-2" data-name="Layer 1"><path class="cls-1" d="M88.23,56.12q41.15,0,65,23.64t23.88,61.92q0,38.28-23.88,61.92t-65,23.63q-41.37,0-64.8-23.63T0,141.68q0-38.29,23.43-61.92T88.23,56.12ZM123,105.31Q110.45,91.84,88.23,91.84T53.69,105.21q-12.33,13.37-12.33,36.47t12.33,36.25Q66,191.08,88.23,191.08T123,177.82q12.54-13.26,12.54-36.14T123,105.31Z"/><path class="cls-2" d="M114.35,141.68c.49,34.11-52.08,34.11-51.59,0C62.28,107.56,114.84,107.56,114.35,141.68Z"/><path class="cls-3" d="M181.8,66.76s6.49,23,4.26,44.25a3.61,3.61,0,0,0-3,2.13s-.25.23-.56,2.74-.56,4.35-.56,4.35-3.19,5.47-3.45,10.2-2.65,12.66-2.65,12.66l-1.34,4.72a8.58,8.58,0,0,0,0,2.6c.23.89.6,1.52,1.06-.5a15.11,15.11,0,0,1,1.1-3.76c.57-1.21-1.2,4.1-.53,4.84s.8-3.85,1.43-5.36,3.14-14.06,4.58-16.82.63-1.41.63-1.41-1.55,6.13-2.07,7.9-2.8,9.76-2.91,11.19c0,0-.9,4.39.2,4.39s1.36-.58,1.49-3a27.73,27.73,0,0,1,1.39-5.95l2.54-8.56s-2.37,9.56-2.62,10-1.33,5.46-.87,6c0,0,.4.89.81.06s.54-4.32,2-8.41,2.5-9.23,2.34-10,.7,3.34-.56,5.89c0,0-3.42,10.8-3.47,12.35s-.24,2.61.31,2.68,1,.24,1.29-2.39.79-3.17.79-3.17,2.63-7.84,2.78-9.83a16.83,16.83,0,0,0,.39-5.54c-.37-2.44-.51-4.8-.51-4.8a30.26,30.26,0,0,0,1.08,4.6c.63,1.74-.36,5.61-.7,6.34s-2.15,6.81-2.15,6.81a5.88,5.88,0,0,1-.87,1.27,1,1,0,0,0,0,1.33s.35,2.07,1,0a10.66,10.66,0,0,1-.28,2.89s-.2,1.27.47,1.65.79-1,1-1.9,2.16-4.33,3.17-8.58,2.46-7.62.69-13.19l-1.17-3.12a8.21,8.21,0,0,1,2.58,7.24s-.54,7.31-1.88,10-3.36,8.42-3.08,9.21,1,3.29,2.4-3.21a76.12,76.12,0,0,1,3-10.71c1.61-3.92,1.53-12.09-1-14.44l.91-7.58a3.35,3.35,0,0,0-2.8-3.81s1-24.33-3.81-44.2S181.8,66.76,181.8,66.76Z"/><path class="cls-4" d="M30.94,0l-.22,2.37s-.11.64.8,1.21l41,24.51L174.16,65.75l46.5,8.09a1.39,1.39,0,0,0,1.76-.51c.66-1,1.1-1.89,1.1-1.89L137.18,7.55Z"/><path class="cls-5" d="M74.41,22.52,62.13,58.77s49.58.25,100.18,32l14-31.5S134.18,27.24,74.41,22.52Z"/></g></g></svg>